<svg width="74" height="74" viewBox="0 0 74 74" fill="none" xmlns="http://www.w3.org/2000/svg">
<path d="M13.8748 37C18.132 37 21.5832 33.5489 21.5832 29.2917C21.5832 25.0345 18.132 21.5833 13.8748 21.5833C9.61764 21.5833 6.1665 25.0345 6.1665 29.2917C6.1665 33.5489 9.61764 37 13.8748 37Z" fill="#044BD9"/>
<path d="M27.7498 24.6667C32.007 24.6667 35.4582 21.2155 35.4582 16.9583C35.4582 12.7011 32.007 9.25 27.7498 9.25C23.4926 9.25 20.0415 12.7011 20.0415 16.9583C20.0415 21.2155 23.4926 24.6667 27.7498 24.6667Z" fill="#044BD9"/>
<path d="M46.2498 24.6667C50.507 24.6667 53.9582 21.2155 53.9582 16.9583C53.9582 12.7011 50.507 9.25 46.2498 9.25C41.9926 9.25 38.5415 12.7011 38.5415 16.9583C38.5415 21.2155 41.9926 24.6667 46.2498 24.6667Z" fill="#044BD9"/>
<path d="M60.1248 37C64.382 37 67.8332 33.5489 67.8332 29.2917C67.8332 25.0345 64.382 21.5833 60.1248 21.5833C55.8676 21.5833 52.4165 25.0345 52.4165 29.2917C52.4165 33.5489 55.8676 37 60.1248 37Z" fill="#044BD9"/>
<path d="M53.4652 45.8183C50.7827 42.6733 48.5318 39.9908 45.8185 36.8458C44.4002 35.1808 42.581 33.5158 40.4227 32.7758C40.0835 32.6525 39.7443 32.56 39.4052 32.4983C38.6343 32.375 37.8018 32.375 37.0002 32.375C36.1985 32.375 35.366 32.375 34.5643 32.5292C34.2252 32.5908 33.886 32.6833 33.5468 32.8067C31.3885 33.5467 29.6002 35.2117 28.151 36.8767C25.4685 40.0217 23.2177 42.7042 20.5043 45.8492C16.4652 49.8883 11.501 54.3592 12.426 60.6183C13.3202 63.7633 15.571 66.8775 19.6102 67.7717C21.861 68.2342 29.0452 66.415 36.6918 66.415H37.2468C44.8935 66.415 52.0777 68.2033 54.3285 67.7717C58.3677 66.8775 60.6185 63.7325 61.5127 60.6183C62.4685 54.3283 57.5043 49.8575 53.4652 45.8183V45.8183Z" fill="#044BD9"/>
</svg>
