<svg width="74" height="74" viewBox="0 0 74 74" fill="none" xmlns="http://www.w3.org/2000/svg">
<path d="M25.7878 0H32.5151C40.2759 0 46.6379 6.09738 47.0664 13.7532C55.989 15.3373 62.7878 23.1445 62.7878 32.5152C62.7878 34.3728 61.2818 35.8788 59.4242 35.8788H28.0303C26.1726 35.8788 24.6666 34.3728 24.6666 32.5152C24.6666 23.1676 31.432 15.3761 40.3219 13.7651C39.9149 9.81688 36.569 6.72727 32.5151 6.72727H25.7878C21.4602 6.72727 17.9394 10.2481 17.9394 14.5758V70.6364C17.9394 72.494 16.4333 74 14.5757 74C12.7181 74 11.2121 72.494 11.2121 70.6364V14.5758C11.2121 6.53868 17.7508 0 25.7878 0ZM31.8601 29.1515H55.5944C54.1267 23.9803 49.3624 20.1816 43.7272 20.1816C38.092 20.1816 33.3278 23.9803 31.8601 29.1515Z" fill="#044BD9"/>
<path d="M32.515 42.6061C34.3727 42.6061 35.8787 44.1121 35.8787 45.9697V50.4545C35.8787 52.3122 34.3727 53.8182 32.515 53.8182C30.6574 53.8182 29.1514 52.3122 29.1514 50.4545V45.9697C29.1514 44.1121 30.6574 42.6061 32.515 42.6061Z" fill="#044BD9"/>
<path d="M59.4242 42.6061C61.2818 42.6061 62.7878 44.1121 62.7878 45.9697V50.4545C62.7878 52.3122 61.2818 53.8182 59.4242 53.8182C57.5666 53.8182 56.0606 52.3122 56.0606 50.4545V45.9697C56.0606 44.1121 57.5666 42.6061 59.4242 42.6061Z" fill="#044BD9"/>
<path d="M45.9696 42.6061C47.8272 42.6061 49.3333 44.1121 49.3333 45.9697V50.4545C49.3333 52.3122 47.8272 53.8182 45.9696 53.8182C44.112 53.8182 42.606 52.3122 42.606 50.4545V45.9697C42.606 44.1121 44.112 42.6061 45.9696 42.6061Z" fill="#044BD9"/>
<path d="M32.515 60.5455C34.3727 60.5455 35.8787 62.0515 35.8787 63.9091V68.3939C35.8787 70.2516 34.3727 71.7576 32.515 71.7576C30.6574 71.7576 29.1514 70.2516 29.1514 68.3939V63.9091C29.1514 62.0515 30.6574 60.5455 32.515 60.5455Z" fill="#044BD9"/>
<path d="M59.4242 60.5455C61.2818 60.5455 62.7878 62.0515 62.7878 63.9091V68.3939C62.7878 70.2516 61.2818 71.7576 59.4242 71.7576C57.5666 71.7576 56.0606 70.2516 56.0606 68.3939V63.9091C56.0606 62.0515 57.5666 60.5455 59.4242 60.5455Z" fill="#044BD9"/>
<path d="M45.9696 60.5455C47.8272 60.5455 49.3333 62.0515 49.3333 63.9091V68.3939C49.3333 70.2516 47.8272 71.7576 45.9696 71.7576C44.112 71.7576 42.606 70.2516 42.606 68.3939V63.9091C42.606 62.0515 44.112 60.5455 45.9696 60.5455Z" fill="#044BD9"/>
</svg>
