<svg width="74" height="74" viewBox="0 0 74 74" fill="none" xmlns="http://www.w3.org/2000/svg">
<path d="M50.1043 9.25C53.1708 9.25 56.1118 10.4682 58.2802 12.6366C60.4486 14.805 61.6667 17.7459 61.6667 20.8125V48.5625C61.6669 51.1684 60.7869 53.6979 59.1696 55.7412C57.5522 57.7844 55.2922 59.2216 52.7559 59.8197L60.3502 63.4334C60.8805 63.6847 61.2955 64.1282 61.511 64.674C61.7265 65.2199 61.7264 65.8272 61.5108 66.373C61.2951 66.9188 60.88 67.3622 60.3496 67.6133C59.8192 67.8644 59.2132 67.9045 58.6543 67.7254L58.3614 67.6082L42.6426 60.125H31.3545L15.6388 67.6082C15.3634 67.7493 15.0625 67.8337 14.7539 67.8563C14.4453 67.879 14.1353 67.8395 13.8423 67.7402C13.5493 67.6409 13.2791 67.4838 13.0479 67.2782C12.8167 67.0726 12.629 66.8227 12.4962 66.5433C12.3633 66.2639 12.2878 65.9607 12.2742 65.6516C12.2606 65.3424 12.3092 65.0338 12.4171 64.7438C12.525 64.4538 12.69 64.1884 12.9023 63.9633C13.1146 63.7382 13.3699 63.558 13.6531 63.4334L21.2443 59.8167C18.7087 59.2181 16.4494 57.7813 14.8322 55.7388C13.215 53.6963 12.3346 51.1677 12.3334 48.5625V20.8125C12.3334 17.7459 13.5516 14.805 15.72 12.6366C17.8884 10.4682 20.8294 9.25 23.8959 9.25H50.1043ZM57.0418 43.1667H16.9584V48.5625C16.9584 50.4024 17.6893 52.167 18.9904 53.4681C20.2914 54.7691 22.056 55.5 23.8959 55.5H50.1043C51.9442 55.5 53.7088 54.7691 55.0098 53.4681C56.3108 52.167 57.0418 50.4024 57.0418 48.5625V43.1667ZM24.6668 46.25C25.4845 46.25 26.2688 46.5748 26.847 47.1531C27.4252 47.7313 27.7501 48.5156 27.7501 49.3333C27.7501 50.1511 27.4252 50.9353 26.847 51.5136C26.2688 52.0918 25.4845 52.4167 24.6668 52.4167C23.849 52.4167 23.0647 52.0918 22.4865 51.5136C21.9083 50.9353 21.5834 50.1511 21.5834 49.3333C21.5834 48.5156 21.9083 47.7313 22.4865 47.1531C23.0647 46.5748 23.849 46.25 24.6668 46.25ZM49.3334 46.25C50.1512 46.25 50.9354 46.5748 51.5137 47.1531C52.0919 47.7313 52.4168 48.5156 52.4168 49.3333C52.4168 50.1511 52.0919 50.9353 51.5137 51.5136C50.9354 52.0918 50.1512 52.4167 49.3334 52.4167C48.5157 52.4167 47.7314 52.0918 47.1532 51.5136C46.5749 50.9353 46.2501 50.1511 46.2501 49.3333C46.2501 48.5156 46.5749 47.7313 47.1532 47.1531C47.7314 46.5748 48.5157 46.25 49.3334 46.25ZM50.1043 13.875H23.8959C22.056 13.875 20.2914 14.6059 18.9904 15.9069C17.6893 17.208 16.9584 18.9726 16.9584 20.8125V38.5417H57.0418V20.8125C57.0418 18.9726 56.3108 17.208 55.0098 15.9069C53.7088 14.6059 51.9442 13.875 50.1043 13.875ZM40.8543 18.5C41.4676 18.5 42.0558 18.7436 42.4894 19.1773C42.9231 19.611 43.1668 20.1992 43.1668 20.8125C43.1668 21.4258 42.9231 22.014 42.4894 22.4477C42.0558 22.8814 41.4676 23.125 40.8543 23.125H33.1459C32.5326 23.125 31.9444 22.8814 31.5107 22.4477C31.0771 22.014 30.8334 21.4258 30.8334 20.8125C30.8334 20.1992 31.0771 19.611 31.5107 19.1773C31.9444 18.7436 32.5326 18.5 33.1459 18.5H40.8543Z" fill="#044BD9"/>
</svg>
