<svg width="74" height="74" viewBox="0 0 74 74" fill="none" xmlns="http://www.w3.org/2000/svg">
<g clip-path="url(#clip0_106_160)">
<path d="M61.6667 43.1667H30.8333V12.3333C30.8333 5.5315 25.3018 0 18.5 0H12.3333C5.5315 0 0 5.5315 0 12.3333V58.5833C0 67.0841 6.91592 74 15.4167 74H61.6667C68.4685 74 74 68.4685 74 61.6667V55.5C74 48.6982 68.4685 43.1667 61.6667 43.1667ZM67.8333 61.6667C67.8333 65.0676 65.0676 67.8333 61.6667 67.8333H15.4167C10.3168 67.8333 6.16667 63.6832 6.16667 58.5833V12.3333C6.16667 8.93242 8.93242 6.16667 12.3333 6.16667H18.5C21.9009 6.16667 24.6667 8.93242 24.6667 12.3333V18.5H18.5C16.798 18.5 15.4167 19.8783 15.4167 21.5833C15.4167 23.2884 16.798 24.6667 18.5 24.6667H24.6667V30.8333H18.5C16.798 30.8333 15.4167 32.2116 15.4167 33.9167C15.4167 35.6217 16.798 37 18.5 37H24.6667V43.1667H18.5C16.798 43.1667 15.4167 44.5449 15.4167 46.25C15.4167 47.9551 16.798 49.3333 18.5 49.3333H24.6667V55.5C24.6667 57.2051 26.048 58.5833 27.75 58.5833C29.452 58.5833 30.8333 57.2051 30.8333 55.5V49.3333H37V55.5C37 57.2051 38.3813 58.5833 40.0833 58.5833C41.7853 58.5833 43.1667 57.2051 43.1667 55.5V49.3333H49.3333V55.5C49.3333 57.2051 50.7116 58.5833 52.4167 58.5833C54.1217 58.5833 55.5 57.2051 55.5 55.5V49.3333H61.6667C65.0676 49.3333 67.8333 52.0991 67.8333 55.5V61.6667Z" fill="#044BD9"/>
</g>
<defs>
<clipPath id="clip0_106_160">
<rect width="74" height="74" fill="white"/>
</clipPath>
</defs>
</svg>
