<svg width="74" height="74" viewBox="0 0 74 74" fill="none" xmlns="http://www.w3.org/2000/svg">
<g clip-path="url(#clip0_106_158)">
<path d="M67.2167 17.2019L45.6334 2.63624C43.0869 0.905436 40.079 -0.0200195 37 -0.0200195C33.921 -0.0200195 30.9131 0.905436 28.3667 2.63624L6.78335 17.2019C4.69178 18.6131 2.97919 20.5167 1.79632 22.7454C0.613455 24.974 -0.00341495 27.4592 1.42192e-05 29.9823V58.5833C0.00491011 62.6706 1.63073 66.589 4.52086 69.4791C7.41099 72.3693 11.3294 73.9951 15.4167 74C16.2344 74 17.0187 73.6751 17.5969 73.0969C18.1752 72.5187 18.5 71.7344 18.5 70.9167V40.0833C18.5 38.4478 19.1497 36.8793 20.3062 35.7228C21.4627 34.5664 23.0312 33.9167 24.6667 33.9167H49.3334C50.9689 33.9167 52.5374 34.5664 53.6938 35.7228C54.8503 36.8793 55.5 38.4478 55.5 40.0833V70.9167C55.5 71.7344 55.8249 72.5187 56.4031 73.0969C56.9813 73.6751 57.7656 74 58.5834 74C62.6706 73.9951 66.5891 72.3693 69.4792 69.4791C72.3693 66.589 73.9951 62.6706 74 58.5833V29.9823C74.0032 27.4593 73.3862 24.9741 72.2033 22.7456C71.0205 20.517 69.3081 18.6133 67.2167 17.2019ZM67.8334 58.5833C67.831 60.4958 67.2371 62.3608 66.1331 63.9225C65.029 65.4841 63.4689 66.666 61.6667 67.3061V40.0833C61.6667 36.8123 60.3673 33.6753 58.0543 31.3623C55.7414 29.0494 52.6044 27.75 49.3334 27.75H24.6667C21.3957 27.75 18.2586 29.0494 15.9457 31.3623C13.6328 33.6753 12.3333 36.8123 12.3333 40.0833V67.3061C10.5311 66.666 8.97101 65.4841 7.86697 63.9225C6.76292 62.3608 6.16901 60.4958 6.16668 58.5833V29.9823C6.16659 28.4682 6.53822 26.9771 7.24892 25.6401C7.95963 24.3031 8.98769 23.161 10.2428 22.3141L31.8262 7.75149C33.3513 6.71181 35.1542 6.15573 37 6.15573C38.8458 6.15573 40.6488 6.71181 42.1739 7.75149L63.7572 22.3141C65.0123 23.161 66.0404 24.3031 66.7511 25.6401C67.4618 26.9771 67.8334 28.4682 67.8334 29.9823V58.5833ZM49.025 49.6201C48.4346 47.7427 47.259 46.1036 45.6701 44.9424C44.0811 43.7812 42.1623 43.1589 40.1944 43.1667H33.8057C31.8377 43.1589 29.9189 43.7812 28.33 44.9424C26.741 46.1036 25.5654 47.7427 24.975 49.6201L22.903 56.1537C22.2154 59.5392 19.2894 67.2598 24.6667 67.8333V70.9167C24.6667 71.7344 24.9915 72.5187 25.5698 73.0969C26.148 73.6751 26.9323 74 27.75 74C28.5678 74 29.352 73.6751 29.9303 73.0969C30.5085 72.5187 30.8334 71.7344 30.8334 70.9167V67.8333H43.1667V70.9167C43.1667 71.7344 43.4915 72.5187 44.0698 73.0969C44.648 73.6751 45.4323 74 46.25 74C47.0678 74 47.852 73.6751 48.4303 73.0969C49.0085 72.5187 49.3334 71.7344 49.3334 70.9167V67.8333C54.7107 67.2537 51.8 59.5453 51.0847 56.1506L49.025 49.6201ZM33.8057 49.3333H40.1944C40.85 49.3339 41.4883 49.5435 42.0168 49.9317C42.5452 50.3198 42.9361 50.8662 43.1328 51.4917L44.4 55.5H29.6L30.8765 51.4917C31.0727 50.8677 31.4623 50.3224 31.9888 49.9344C32.5154 49.5464 33.1516 49.3359 33.8057 49.3333Z" fill="#044BD9"/>
</g>
<defs>
<clipPath id="clip0_106_158">
<rect width="74" height="74" fill="white"/>
</clipPath>
</defs>
</svg>
