<svg width="74" height="74" viewBox="0 0 74 74" fill="none" xmlns="http://www.w3.org/2000/svg">
<path d="M13.8751 37C18.1323 37 21.5834 33.5489 21.5834 29.2917C21.5834 25.0345 18.1323 21.5833 13.8751 21.5833C9.61789 21.5833 6.16675 25.0345 6.16675 29.2917C6.16675 33.5489 9.61789 37 13.8751 37Z" fill="#808080"/>
<path d="M27.7501 24.6667C32.0073 24.6667 35.4584 21.2155 35.4584 16.9583C35.4584 12.7011 32.0073 9.25 27.7501 9.25C23.4929 9.25 20.0417 12.7011 20.0417 16.9583C20.0417 21.2155 23.4929 24.6667 27.7501 24.6667Z" fill="#808080"/>
<path d="M46.2501 24.6667C50.5073 24.6667 53.9584 21.2155 53.9584 16.9583C53.9584 12.7011 50.5073 9.25 46.2501 9.25C41.9929 9.25 38.5417 12.7011 38.5417 16.9583C38.5417 21.2155 41.9929 24.6667 46.2501 24.6667Z" fill="#808080"/>
<path d="M60.1251 37C64.3823 37 67.8334 33.5489 67.8334 29.2917C67.8334 25.0345 64.3823 21.5833 60.1251 21.5833C55.8679 21.5833 52.4167 25.0345 52.4167 29.2917C52.4167 33.5489 55.8679 37 60.1251 37Z" fill="#808080"/>
<path d="M53.4649 45.8183C50.7824 42.6733 48.5316 39.9908 45.8182 36.8458C44.3999 35.1808 42.5807 33.5158 40.4224 32.7758C40.0832 32.6525 39.7441 32.56 39.4049 32.4983C38.6341 32.375 37.8016 32.375 36.9999 32.375C36.1982 32.375 35.3657 32.375 34.5641 32.5292C34.2249 32.5908 33.8857 32.6833 33.5466 32.8067C31.3882 33.5467 29.5999 35.2117 28.1507 36.8767C25.4682 40.0217 23.2174 42.7042 20.5041 45.8492C16.4649 49.8883 11.5007 54.3592 12.4257 60.6183C13.3199 63.7633 15.5707 66.8775 19.6099 67.7717C21.8607 68.2342 29.0449 66.415 36.6916 66.415H37.2466C44.8932 66.415 52.0774 68.2033 54.3282 67.7717C58.3674 66.8775 60.6182 63.7325 61.5124 60.6183C62.4682 54.3283 57.5041 49.8575 53.4649 45.8183Z" fill="#808080"/>
</svg>
